<mxfile host="app.diagrams.net" agent="Mozilla/5.0 (Windows NT 10.0; Win64; x64) AppleWebKit/537.36 (KHTML, like Gecko) Chrome/132.0.0.0 Safari/537.36" version="26.0.11">
  <diagram name="페이지-1" id="ehOCYG6xozT-G77v_sDz">
    <mxGraphModel dx="1434" dy="772" grid="1" gridSize="10" guides="1" tooltips="1" connect="1" arrows="1" fold="1" page="1" pageScale="1" pageWidth="827" pageHeight="1169" math="0" shadow="0">
      <root>
        <mxCell id="0" />
        <mxCell id="1" parent="0" />
        <mxCell id="lkDHEoTyCImBmx_JQBj4-23" value="" style="rounded=1;whiteSpace=wrap;html=1;dashed=1;" vertex="1" parent="1">
          <mxGeometry x="430" y="70" width="310" height="330" as="geometry" />
        </mxCell>
        <mxCell id="lkDHEoTyCImBmx_JQBj4-1" value="" style="rounded=1;whiteSpace=wrap;html=1;dashed=1;" vertex="1" parent="1">
          <mxGeometry x="150" y="20" width="220" height="430" as="geometry" />
        </mxCell>
        <mxCell id="lkDHEoTyCImBmx_JQBj4-2" value="" style="image;aspect=fixed;perimeter=ellipsePerimeter;html=1;align=center;shadow=0;dashed=0;spacingTop=3;image=img/lib/active_directory/generic_server.svg;" vertex="1" parent="1">
          <mxGeometry x="220" y="330" width="48" height="85.71" as="geometry" />
        </mxCell>
        <mxCell id="lkDHEoTyCImBmx_JQBj4-3" value="" style="image;aspect=fixed;perimeter=ellipsePerimeter;html=1;align=center;shadow=0;dashed=0;spacingTop=3;image=img/lib/active_directory/generic_server.svg;" vertex="1" parent="1">
          <mxGeometry x="220" y="230" width="56" height="100" as="geometry" />
        </mxCell>
        <mxCell id="lkDHEoTyCImBmx_JQBj4-4" value="" style="image;aspect=fixed;perimeter=ellipsePerimeter;html=1;align=center;shadow=0;dashed=0;spacingTop=3;image=img/lib/active_directory/generic_server.svg;" vertex="1" parent="1">
          <mxGeometry x="220" y="100" width="70.4" height="125.71" as="geometry" />
        </mxCell>
        <mxCell id="lkDHEoTyCImBmx_JQBj4-11" value="" style="endArrow=classic;html=1;rounded=0;exitX=0.339;exitY=0.884;exitDx=0;exitDy=0;exitPerimeter=0;entryX=0.339;entryY=0.233;entryDx=0;entryDy=0;entryPerimeter=0;" edge="1" parent="1">
          <mxGeometry width="50" height="50" relative="1" as="geometry">
            <mxPoint x="319.99999999999994" y="400.1199999999999" as="sourcePoint" />
            <mxPoint x="319.99999999999994" y="120.19000000000005" as="targetPoint" />
          </mxGeometry>
        </mxCell>
        <mxCell id="lkDHEoTyCImBmx_JQBj4-13" value="수직적 규모 확장&lt;div&gt;(CPU,RAM,디스크 등 자원 증설)&lt;/div&gt;" style="text;html=1;align=center;verticalAlign=middle;whiteSpace=wrap;rounded=0;" vertex="1" parent="1">
          <mxGeometry x="165.4" y="60" width="179.6" height="30" as="geometry" />
        </mxCell>
        <mxCell id="lkDHEoTyCImBmx_JQBj4-15" value="" style="image;aspect=fixed;perimeter=ellipsePerimeter;html=1;align=center;shadow=0;dashed=0;spacingTop=3;image=img/lib/active_directory/generic_server.svg;" vertex="1" parent="1">
          <mxGeometry x="480" y="142.14" width="48" height="85.71" as="geometry" />
        </mxCell>
        <mxCell id="lkDHEoTyCImBmx_JQBj4-16" value="" style="image;aspect=fixed;perimeter=ellipsePerimeter;html=1;align=center;shadow=0;dashed=0;spacingTop=3;image=img/lib/active_directory/generic_server.svg;" vertex="1" parent="1">
          <mxGeometry x="560" y="142.14" width="48" height="85.71" as="geometry" />
        </mxCell>
        <mxCell id="lkDHEoTyCImBmx_JQBj4-17" value="" style="image;aspect=fixed;perimeter=ellipsePerimeter;html=1;align=center;shadow=0;dashed=0;spacingTop=3;image=img/lib/active_directory/generic_server.svg;" vertex="1" parent="1">
          <mxGeometry x="640" y="142.14" width="48" height="85.71" as="geometry" />
        </mxCell>
        <mxCell id="lkDHEoTyCImBmx_JQBj4-18" value="" style="image;aspect=fixed;perimeter=ellipsePerimeter;html=1;align=center;shadow=0;dashed=0;spacingTop=3;image=img/lib/active_directory/generic_server.svg;" vertex="1" parent="1">
          <mxGeometry x="480" y="242.14" width="48" height="85.71" as="geometry" />
        </mxCell>
        <mxCell id="lkDHEoTyCImBmx_JQBj4-19" value="" style="image;aspect=fixed;perimeter=ellipsePerimeter;html=1;align=center;shadow=0;dashed=0;spacingTop=3;image=img/lib/active_directory/generic_server.svg;" vertex="1" parent="1">
          <mxGeometry x="560" y="242.14" width="48" height="85.71" as="geometry" />
        </mxCell>
        <mxCell id="lkDHEoTyCImBmx_JQBj4-20" value="" style="image;aspect=fixed;perimeter=ellipsePerimeter;html=1;align=center;shadow=0;dashed=0;spacingTop=3;image=img/lib/active_directory/generic_server.svg;" vertex="1" parent="1">
          <mxGeometry x="640" y="242.14" width="48" height="85.71" as="geometry" />
        </mxCell>
        <mxCell id="lkDHEoTyCImBmx_JQBj4-21" value="" style="endArrow=classic;html=1;rounded=0;exitX=0.518;exitY=0.791;exitDx=0;exitDy=0;exitPerimeter=0;entryX=0.893;entryY=0.791;entryDx=0;entryDy=0;entryPerimeter=0;" edge="1" parent="1">
          <mxGeometry width="50" height="50" relative="1" as="geometry">
            <mxPoint x="479.99999999999994" y="360.1300000000001" as="sourcePoint" />
            <mxPoint x="689.9999999999999" y="360.1300000000001" as="targetPoint" />
          </mxGeometry>
        </mxCell>
        <mxCell id="lkDHEoTyCImBmx_JQBj4-22" value="수평적 규모 확장&lt;div&gt;(서버 증설)&lt;/div&gt;" style="text;html=1;align=center;verticalAlign=middle;whiteSpace=wrap;rounded=0;" vertex="1" parent="1">
          <mxGeometry x="494.20000000000005" y="100" width="179.6" height="30" as="geometry" />
        </mxCell>
      </root>
    </mxGraphModel>
  </diagram>
</mxfile>
